<svg class="logo" width="850" height="218" viewBox="0 0 850 218" fill="none" xmlns="http://www.w3.org/2000/svg">
    <path d="M84.839 172.349H87.339V169.849V135.46L116.028 112.319L163.302 171.411L164.052 172.349H165.254H190.024H195.278L191.963 168.272L134.409 97.4748L193.342 49.6862L198.82 45.2444H191.768H164.556H163.663L162.972 45.8098L113.97 85.9188L113.956 85.9299L87.339 107.405V47.7444V45.2444H84.839H66H63.5V47.7444V169.849V172.349H66H84.839ZM240.946 45.2444H238.446V47.7444V169.849V172.349H240.946H337.409H339.909V169.849V151.708V149.208H337.409H262.285V118.797H327.815H330.315V116.297V98.1562V95.6562H327.815H262.285V68.3856H337.409H339.909V65.8856V47.7444V45.2444H337.409H240.946ZM489.283 151.708V149.208H486.783H412.531V47.7444V45.2444H410.031H391.192H388.692V47.7444V169.849V172.349H391.192H486.783H489.283V169.849V151.708ZM641.823 48.7512L643.367 45.2444H639.535H617.382H615.693L615.063 46.8111L585.583 120.074L585.576 120.092L585.569 120.11C583.842 124.599 581.824 129.444 579.513 134.644L579.503 134.666L579.494 134.687C578.132 137.914 576.813 141.075 575.538 144.171C574.209 141.008 572.748 137.76 571.154 134.427C568.724 129.103 566.586 124.249 564.739 119.863L564.732 119.847L564.726 119.832L532.804 46.7437L532.149 45.2444H530.513H509.058H505.191L506.778 48.7703L561.725 170.875L562.388 172.349H564.005H585.809H587.44L588.097 170.856L641.823 48.7512ZM685.264 130.671L683.277 128.467L681.442 130.8L669.232 146.325L667.939 147.968L669.328 149.531C677.013 158.177 685.885 164.468 695.939 168.344C705.92 172.192 717.046 174.093 729.284 174.093C740.673 174.093 750.644 172.493 759.14 169.216L759.148 169.213L759.157 169.209C767.746 165.822 774.492 161.041 779.242 154.793C784.129 148.4 786.556 140.94 786.556 132.52C786.556 126.19 785.003 120.752 781.714 116.393C778.652 112.067 774.474 108.676 769.266 106.195C764.299 103.773 758.649 101.857 752.338 100.428C746.096 99.0144 739.569 97.8971 732.759 97.074C725.863 96.0385 719.864 94.8362 714.752 93.4729C709.747 92.1384 706.06 90.3562 703.527 88.2364C701.221 86.1968 700.036 83.5376 700.036 80.0149C700.036 77.764 700.637 75.8633 701.8 74.2209C702.982 72.5527 704.838 71.0216 707.533 69.7004L707.551 69.6917L707.568 69.6828C713.051 66.8875 720.018 65.4202 728.586 65.4202C736.983 65.4202 744.192 67.0422 750.287 70.1988C756.512 73.4225 761.641 77.5681 765.711 82.6284L767.529 84.8884L769.496 82.7572L782.056 69.1512L783.433 67.6595L782.255 66.0057C777.073 58.7252 769.884 53.163 760.796 49.2845C751.807 45.3988 741.222 43.5 729.109 43.5C719.321 43.5 710.306 44.992 702.091 48.0108C693.973 50.9202 687.374 55.2055 682.401 60.9215C677.315 66.6481 674.802 73.6462 674.802 81.7592C674.802 89.453 676.923 96.0798 681.29 101.474L681.299 101.485L681.308 101.496C685.586 106.655 691.545 110.708 699.044 113.732L699.066 113.741L699.088 113.749C706.629 116.622 715.423 118.754 725.445 120.168L725.458 120.17L725.471 120.172C733.447 121.212 740.229 122.363 745.831 123.621L745.854 123.626L745.878 123.631C751.403 124.759 755.291 126.344 757.774 128.231L757.792 128.245L757.811 128.259C760.172 129.984 761.322 132.248 761.322 135.311C761.322 138.995 759.958 141.969 757.133 144.405C754.227 146.895 750.347 148.841 745.385 150.164C740.369 151.502 735.178 152.173 729.807 152.173C720.01 152.173 711.774 150.317 705.005 146.717C698.081 142.919 691.498 137.585 685.264 130.671Z" stroke="currentColor" fill="currentColor" stroke-width="5"/>
    <rect x="2.5" y="2.5" width="845" height="213" rx="17.5" stroke="currentColor" stroke-width="5"/>
</svg>
